<svg xmlns="http://www.w3.org/2000/svg" viewBox="0 0 1200 760" role="img" aria-labelledby="title desc">
  <title id="title">Mockup 3</title>
  <desc id="desc">Preview visual do dashboard compacto orientado a tarefas.</desc>
  <rect width="1200" height="760" fill="#fff7ed"/>
  <rect x="44" y="38" width="1112" height="90" rx="20" fill="#ffffff" stroke="#fed7aa"/>
  <text x="78" y="92" font-family="Inter, Arial" font-size="30" font-weight="900" fill="#ea580c">CV Edi Pro</text>
  <rect x="840" y="62" width="130" height="42" rx="21" fill="#0f766e"/>
  <rect x="990" y="62" width="130" height="42" rx="21" fill="#ea580c"/>
  <rect x="72" y="170" width="1056" height="170" rx="30" fill="#ffffff" stroke="#fed7aa"/>
  <text x="112" y="238" font-family="Inter, Arial" font-size="40" font-weight="900" fill="#1f2937">Escolha uma tarefa para avançar</text>
  <text x="114" y="286" font-family="Inter, Arial" font-size="21" fill="#6b7280">Fluxo enxuto para análise, revisão, base e currículos salvos.</text>
  <g>
    <rect x="72" y="390" width="240" height="230" rx="24" fill="#0f766e"/>
    <rect x="344" y="390" width="240" height="230" rx="24" fill="#ffffff" stroke="#fed7aa"/>
    <rect x="616" y="390" width="240" height="230" rx="24" fill="#ffffff" stroke="#fed7aa"/>
    <rect x="888" y="390" width="240" height="230" rx="24" fill="#ffffff" stroke="#fed7aa"/>
  </g>
  <g font-family="Inter, Arial" font-weight="900">
    <text x="108" y="464" font-size="27" fill="#ffffff">Análise</text>
    <text x="380" y="464" font-size="27" fill="#1f2937">Base</text>
    <text x="652" y="464" font-size="27" fill="#1f2937">Editor</text>
    <text x="924" y="464" font-size="27" fill="#1f2937">Salvos</text>
  </g>
  <g fill="#fed7aa">
    <rect x="380" y="504" width="150" height="16" rx="8"/>
    <rect x="652" y="504" width="150" height="16" rx="8"/>
    <rect x="924" y="504" width="150" height="16" rx="8"/>
    <rect x="380" y="536" width="110" height="16" rx="8"/>
    <rect x="652" y="536" width="110" height="16" rx="8"/>
    <rect x="924" y="536" width="110" height="16" rx="8"/>
  </g>
  <rect x="108" y="506" width="150" height="44" rx="14" fill="#ffffff"/>
  <text x="136" y="535" font-family="Inter, Arial" font-size="17" font-weight="900" fill="#0f766e">Abrir fluxo</text>
</svg>
