<svg xmlns="http://www.w3.org/2000/svg" viewBox="0 0 1200 760" role="img" aria-labelledby="title desc">
  <title id="title">Mockup 2</title>
  <desc id="desc">Preview visual do dashboard com navegação lateral.</desc>
  <rect width="1200" height="760" fill="#0f172a"/>
  <rect x="36" y="36" width="250" height="688" rx="26" fill="#111c33" stroke="#26344f"/>
  <text x="70" y="92" font-family="Inter, Arial" font-size="28" font-weight="900" fill="#55efc4">CV Edi Pro</text>
  <g fill="#24324d">
    <rect x="70" y="150" width="180" height="44" rx="14"/>
    <rect x="70" y="214" width="150" height="44" rx="14"/>
    <rect x="70" y="278" width="170" height="44" rx="14"/>
    <rect x="70" y="342" width="140" height="44" rx="14"/>
  </g>
  <rect x="330" y="42" width="830" height="120" rx="24" fill="#17233a" stroke="#26344f"/>
  <text x="370" y="95" font-family="Inter, Arial" font-size="36" font-weight="900" fill="#f8fafc">Dashboard pós-login</text>
  <text x="370" y="130" font-family="Inter, Arial" font-size="18" fill="#94a3b8">Acesso rápido aos fluxos reais do currículo.</text>
  <rect x="330" y="200" width="400" height="220" rx="26" fill="#6c5ce7"/>
  <text x="370" y="268" font-family="Inter, Arial" font-size="34" font-weight="900" fill="#ffffff">Analisar vaga</text>
  <text x="372" y="310" font-family="Inter, Arial" font-size="20" fill="#e9e7ff">Compare descrição da vaga com seu currículo.</text>
  <rect x="370" y="344" width="168" height="46" rx="14" fill="#55efc4"/>
  <text x="402" y="374" font-family="Inter, Arial" font-size="17" font-weight="900" fill="#0f172a">Começar</text>
  <g fill="#17233a" stroke="#26344f">
    <rect x="770" y="200" width="390" height="220" rx="26"/>
    <rect x="330" y="462" width="250" height="190" rx="22"/>
    <rect x="620" y="462" width="250" height="190" rx="22"/>
    <rect x="910" y="462" width="250" height="190" rx="22"/>
  </g>
  <g font-family="Inter, Arial" fill="#f8fafc" font-weight="800">
    <text x="810" y="270" font-size="28">Progresso ATS</text>
    <text x="365" y="535" font-size="24">Base</text>
    <text x="655" y="535" font-size="24">Currículos</text>
    <text x="945" y="535" font-size="24">Conta</text>
  </g>
  <rect x="810" y="304" width="280" height="20" rx="10" fill="#55efc4"/>
  <rect x="810" y="340" width="220" height="14" rx="7" fill="#334155"/>
</svg>
