<svg xmlns="http://www.w3.org/2000/svg" viewBox="0 0 1200 760" role="img" aria-labelledby="title desc">
  <title id="title">Mockup 1</title>
  <desc id="desc">Preview visual do dashboard com cards principais.</desc>
  <rect width="1200" height="760" fill="#f4f7fb"/>
  <rect x="40" y="34" width="1120" height="84" rx="18" fill="#ffffff" stroke="#dfe7f2"/>
  <text x="72" y="86" font-family="Inter, Arial" font-size="30" font-weight="800" fill="#5b4ee6">CV Edi Pro</text>
  <circle cx="1080" cy="76" r="22" fill="#10b981"/>
  <circle cx="1128" cy="76" r="22" fill="#6c5ce7"/>
  <rect x="70" y="160" width="650" height="180" rx="28" fill="#6c5ce7"/>
  <text x="110" y="222" font-family="Inter, Arial" font-size="42" font-weight="900" fill="#ffffff">Pronto para ajustar seu currículo</text>
  <text x="112" y="272" font-family="Inter, Arial" font-size="22" fill="#e9e7ff">Análise de vaga, ATS, base profissional e editor em um fluxo direto.</text>
  <rect x="112" y="296" width="190" height="44" rx="14" fill="#00b894"/>
  <text x="142" y="325" font-family="Inter, Arial" font-size="17" font-weight="800" fill="#ffffff">Analisar vaga</text>
  <rect x="760" y="160" width="370" height="180" rx="28" fill="#ffffff" stroke="#dfe7f2"/>
  <text x="800" y="220" font-family="Inter, Arial" font-size="30" font-weight="800" fill="#1e293b">Resumo</text>
  <rect x="800" y="252" width="270" height="14" rx="7" fill="#cbd5e1"/>
  <rect x="800" y="282" width="220" height="14" rx="7" fill="#cbd5e1"/>
  <g fill="#ffffff" stroke="#dfe7f2">
    <rect x="70" y="390" width="320" height="250" rx="22"/>
    <rect x="440" y="390" width="320" height="250" rx="22"/>
    <rect x="810" y="390" width="320" height="250" rx="22"/>
  </g>
  <g font-family="Inter, Arial" fill="#1e293b">
    <text x="106" y="460" font-size="27" font-weight="800">Base profissional</text>
    <text x="476" y="460" font-size="27" font-weight="800">Meus currículos</text>
    <text x="846" y="460" font-size="27" font-weight="800">Editor</text>
  </g>
  <g fill="#eef2ff">
    <rect x="106" y="500" width="230" height="18" rx="9"/>
    <rect x="476" y="500" width="230" height="18" rx="9"/>
    <rect x="846" y="500" width="230" height="18" rx="9"/>
    <rect x="106" y="536" width="170" height="18" rx="9"/>
    <rect x="476" y="536" width="170" height="18" rx="9"/>
    <rect x="846" y="536" width="170" height="18" rx="9"/>
  </g>
</svg>
